<?xml version="1.0" encoding="utf-8"?>
<!-- Generator: Adobe Illustrator 22.1.0, SVG Export Plug-In . SVG Version: 6.00 Build 0)  -->
<svg version="1.1" id="レイヤー_1" xmlns="http://www.w3.org/2000/svg" xmlns:xlink="http://www.w3.org/1999/xlink" x="0px"
	 y="0px" viewBox="0 0 1341 442.9" style="enable-background:new 0 0 1341 442.9;" xml:space="preserve">
<path id="シェイプ_3" d="M552.1,66.5c-1-2.1-2.9-2.7-4.9-2.8c-0.1,0-0.1,0-0.2,0c-3.1-0.3-4.6-0.3-8.1,1.7
	c-9.5,5.4-17.9,13-28.8,18s-22.2,3.4-33-0.6s-21.9-8.4-32.3-9.6s-19.4,0.4-28.5,1.6c-8.3,1.2-16.5,3.6-24.2,7
	c-6.8,2.8-11.4,6.5-16.6,10.6c-1.8,0.9-2.7,1.6-4.3,4.2c-1.9,3.1-2.7,4.7-5.4,9.3s-4.5,6.5-8.5,13.8c-7.9,14-15.1,28.3-26,44.5
	s-26.4,41.6-37.6,59.2S269.7,259,258,274.2c-11.1,14.3-23.1,27.9-35.9,40.7c-11.7,11.6-24.5,22-38.4,30.9
	c-12.9,8.5-24.3,10.5-37.6,12.7c-6.9,1.2-11.6-0.8-17-1.7s-9.5-2.6-12.8-5.5c-5.3-4.8-8.5-8.4-7.7-15.6c0.9-8.7,3.3-13.8,11.1-19.7
	s19.3-8.3,30-8.5c4.2,0,8.3,0.5,12.4,1.5c4,1,7.8,2.3,11.6,3.9c3.4,1.5,6.7,3.1,10,5c2.5,1.5,4.9,3.3,7.2,5.2
	c2.2,1.7,3.5,2.5,5.9,2.4c2.3,0.1,4.5-0.9,6-2.7c1.5-1.5,2.3-3.7,2-5.8c-0.3-2.5-0.2-3.7-2.6-6c-2.7-2.5-5.7-4.7-8.9-6.6
	c-4-2.5-8.1-4.7-12.4-6.6c-4.9-2.1-9.9-3.8-15-5.1c-5.3-1.3-10.7-1.9-16.2-2c-8.3,0.1-16.6,1.4-24.6,4c-6.6,2.3-12.8,5.8-18.2,10.3
	c-4.8,3.8-8.7,8.8-11.1,14.5c-2.5,5.6-4.9,10.5-3.7,16.3c2.4,12.2,3.2,20.5,15,28s23.6,11.9,39.6,10.8c13.5-0.9,27.6-4.1,41.3-12.4
	s28.3-18.7,41.2-31.2c13.6-13,26.3-27,38.1-41.8c12.3-15.7,25.2-33.3,37.2-51.5s27.3-44.2,39.2-61.8c11-16.2,21.2-33.1,30.4-50.4
	c3.4-6.4,5.6-9.1,7.7-13.1c1.2-2.1,2.5-4.2,4-6.2c8.7-5.2,13.6-11.1,24.8-13.4c11.4-2.3,21-3.9,35.1-2.3s32.4,11.4,48.6,12.3
	c11.1,0.6,23.8-6.1,34.8-12.7c-4.1,8-9.3,15.3-15.5,21.7c-11,11.5-24.8,19.4-41.8,19.9s-37-5.6-53.4-2.6s-27.9,10-42.5,15.5
	c-3.1,1.1-5.9,2.8-8.3,5c-2.4,2.2-3.2,4.8-3.7,7.7s-1.1,5.2,2,6.9s5.2,1.7,9.1,0.1c9.5-3.9,16.6-9.4,27-13.6s19.6-8.4,32.7-8.1
	s31.8,4.3,45.7,3s25.8-5.7,35.8-14.3s17.7-20.2,25.1-29.7s10.4-17.8,12.7-28.2C554.8,69.6,553.4,69.3,552.1,66.5z M1185.6,66.5
	c-1-2.1-2.9-2.7-4.9-2.8c-0.1,0-0.1,0-0.2,0c-3.1-0.3-4.6-0.3-8.1,1.7c-9.5,5.4-17.9,13-28.8,18s-22.2,3.4-33-0.6
	s-21.9-8.4-32.3-9.6s-19.4,0.4-28.5,1.6c-8.3,1.2-16.5,3.6-24.2,7c-6.8,2.8-11.4,6.5-16.6,10.6c-1.8,0.9-2.7,1.6-4.3,4.2
	c-1.9,3.1-2.7,4.7-5.3,9.3s-4.5,6.5-8.5,13.8c-7.9,14-15.1,28.3-26,44.5s-26.4,41.6-37.6,59.2s-24.2,35.6-35.9,50.9
	c-11.1,14.3-23.1,27.9-35.9,40.7c-11.7,11.6-24.5,22-38.4,30.9c-12.9,8.5-24.3,10.5-37.6,12.7c-6.9,1.2-11.7-0.8-17-1.7
	s-9.5-2.6-12.8-5.5c-5.3-4.8-8.4-8.4-7.7-15.6c0.9-8.7,3.3-13.8,11.1-19.7s19.3-8.3,30-8.5c4.2,0,8.3,0.5,12.3,1.5
	c4,1,7.8,2.3,11.6,3.9c3.4,1.5,6.7,3.1,10,5c2.5,1.5,4.9,3.3,7.2,5.2c2.2,1.7,3.5,2.5,5.9,2.4c2.3,0.1,4.5-0.9,6-2.7
	c1.5-1.5,2.3-3.7,2-5.8c-0.3-2.5-0.2-3.7-2.6-6c-2.7-2.5-5.7-4.7-8.9-6.6c-4-2.5-8.1-4.7-12.4-6.6c-4.9-2.1-9.9-3.8-15-5.1
	c-5.3-1.3-10.7-1.9-16.2-2c-8.3,0.1-16.6,1.4-24.6,4c-6.6,2.3-12.8,5.8-18.2,10.3c-4.8,3.8-8.7,8.8-11.1,14.5
	c-2.5,5.6-4.9,10.5-3.7,16.3c2.4,12.2,3.2,20.5,15,28s23.6,11.9,39.6,10.8c13.5-0.9,27.6-4.1,41.3-12.4s28.2-18.7,41.2-31.2
	c13.6-13,26.3-27,38.1-41.8c12.3-15.7,25.2-33.3,37.2-51.5s27.2-44.2,39.2-61.8c11-16.2,21.2-33.1,30.4-50.4
	c3.4-6.4,5.6-9.1,7.7-13.1c1.2-2.1,2.5-4.2,3.9-6.2c8.7-5.2,13.6-11.1,24.8-13.4c11.4-2.3,21-3.9,35.1-2.3s32.4,11.4,48.6,12.3
	c11.1,0.6,23.8-6.1,34.8-12.7c-4.1,8-9.3,15.3-15.5,21.7c-11,11.5-24.8,19.4-41.8,19.9s-37-5.6-53.4-2.6s-27.9,10-42.5,15.5
	c-3.1,1.1-5.9,2.8-8.3,5c-2.4,2.2-3.2,4.8-3.7,7.7s-1.1,5.2,1.9,6.9s5.2,1.7,9.1,0.1c9.4-3.9,16.6-9.4,27-13.6s19.6-8.4,32.7-8.1
	s31.8,4.3,45.7,3s25.8-5.7,35.8-14.3s17.7-20.2,25.1-29.7s10.3-17.8,12.7-28.2C1188.3,69.6,1186.9,69.3,1185.6,66.5L1185.6,66.5z
	 M328.2,343.6h-68.3c-4.5,0.1-8.3-3.5-8.3-8.1c0-0.1,0-0.2,0-0.3c0-2.3,0.8-4.5,2.4-6.1c1.5-1.7,3.7-2.6,5.9-2.6h68.3
	c2.3,0,4.4,0.9,5.9,2.6c1.6,1.6,2.4,3.8,2.4,6.1c0.1,4.5-3.6,8.3-8.1,8.3C328.3,343.6,328.3,343.6,328.2,343.6z M328.7,244.7
	c-0.2-0.6-0.4-1.3-0.6-1.9c-0.3-0.8-0.5-1.7-0.6-2.6c0.2-2.2,1.1-4.3,2.7-5.9c1.6-1.6,3.7-2.5,5.9-2.4l39.8-1.3
	c2.2,0.2,4.3,1.1,5.9,2.7c1.6,1.6,2.5,3.7,2.4,5.9c0,2.3-0.8,4.5-2.4,6.1c-1.6,1.7-3.9,2.6-6.3,2.6l-39.5,1c-1.5,0.2-3-0.1-4.2-1
	C330.6,247.1,329.5,246,328.7,244.7L328.7,244.7z M454.4,210.5c-0.2-2.2-1.5-4.1-3.4-5.1c-1.6-1.6-4-2.3-6.3-1.8
	c-2.1,0.4-4,1.6-5.3,3.4L316.6,376c-1.3,1.6-1.8,3.7-1.4,5.8c0.4,2.3,1.6,4.3,3.4,5.8c0.7,0.5,1.5,0.8,2.2,1.1
	c0.7,0.3,1.5,0.5,2.2,0.5c2.8,0,5.4-1.3,7.1-3.5L453,216.9C454.2,215,454.8,212.7,454.4,210.5L454.4,210.5z M452.5,225.8
	c-0.1,2.3,0.7,4.5,2.4,6.1c1.3,1.7,3.3,2.8,5.5,2.9c2.2,0.3,4.4-0.4,6.1-1.9c3-2.6,6.3-4.9,9.8-6.9c4.2-2.5,8.1-3.7,11.7-3.7
	c0.2,2.1-0.8,6.4-3,12.8c-2.2,6.4-6.5,14.4-12.7,24c-3.7,5.8-7.8,11.3-12.2,16.5c-3.9,4.6-8.1,8.9-12.5,13
	c-3.5,3.2-7.4,6.1-11.5,8.5c-3.6,2-6.8,3-9.6,3c-0.4,0.1-0.8,0-1.1-0.2c-0.1-0.1-0.3-0.2-0.5-0.2c-0.5-0.7-0.7-1.5-0.6-2.4
	c0.1-1.5,0.4-2.9,1-4.3c0.7-2.1,0.4-4.4-0.6-6.4c-1.1-2-3-3.5-5.1-4.2c-1.8-1.1-4-1.1-5.8,0c-2,1.1-3.5,3-4.2,5.1
	c-2.6,8.3-1.9,15.6,1.9,21.8c1.7,2.3,4,4.2,6.6,5.4c2.7,1.3,5.6,1.9,8.5,1.9c5.3,0,10.5-1.4,15.2-3.8c5.1-2.6,9.9-5.8,14.3-9.6
	c4.4-3.8,8.6-7.8,12.5-12.2c3.9-4.3,7.1-8.1,9.6-11.5c3-4,6.1-8.5,9.3-13.3c3.2-4.8,6.1-9.7,8.7-14.9c2.5-4.9,4.5-9.9,6.3-15
	c1.5-4.3,2.3-8.9,2.4-13.4c0-2.3-0.3-4.5-1-6.7c-0.6-2-1.8-3.8-3.5-5.1c-0.9-1.6-2.3-2.8-3.8-3.7c-1.9-1.2-4.7-1.8-8.3-1.8
	c-3.9,0-7.7,0.7-11.4,2.1c-3.5,1.3-6.9,2.8-10.1,4.6c-2.6,1.4-5.1,3.1-7.4,5c-1.9,1.6-3.1,2.6-3.5,3
	C453.7,221.6,452.5,223.6,452.5,225.8z M629.7,218.5c-2.1-6.2-6-11.6-11.2-15.5c-5.2-3.8-11.5-5.7-18-5.6c-6.4,0.1-12.7,1.5-18.6,4
	c-7,2.9-13.7,6.6-19.9,11c-7,5-13.5,10.8-19.4,17.1c-6.4,6.8-12.1,14.1-17.2,21.9c-6.8,10.5-11.2,20.3-13.2,29.4s-1.2,17.1,2.2,23.7
	c5.1,8.1,12.7,12.2,22.8,12.2c9.9-0.1,19.6-2.7,28.2-7.7c9.1-5.1,17.5-11.5,24.7-19c7-7.2,13-15.3,17.8-24.2
	c4.6-8.5,7.2-16.3,7.9-23.4c0.4-6.8-1-12.5-4.3-17c-3.3-4.5-8.1-7.3-14.3-8.3c-2.1-0.2-4.2,0.3-5.9,1.6c-1.8,1.2-2.9,3.3-3,5.4
	c-0.5,2.2,0,4.4,1.3,6.2c1.3,1.8,3.3,3,5.5,3.4c1.1,0.2,2.2,0.7,3.2,1.3c1.1,0.6,1.4,2.7,1,6.1c-0.4,5.3-2.5,11.4-6.3,18.1
	c-4,7-8.9,13.5-14.6,19.2c-5.9,6-12.5,11.1-19.7,15.4c-7.2,4.2-14.3,6.2-21.3,6.2c-3,0-5-0.5-5.9-1.4c-0.8-0.7-1.4-1.5-1.8-2.4
	c-1.7-2.6-2-6.9-1-13.1s4.6-14,10.6-23.4c4.5-7.2,9.7-13.8,15.6-19.8c5.1-5.3,10.7-10.1,16.7-14.4c4.9-3.5,10.2-6.5,15.7-8.8
	c4.2-1.8,8.7-2.9,13.3-3c6.8,0,11.3,3.4,13.5,10.2c0.7,2.1,2.2,3.9,4.2,5c1.9,1,4.1,1,6.1,0.2c2.2-0.9,4-2.5,5.1-4.5
	C630.5,222.7,630.6,220.4,629.7,218.5z M574.9,326.7H384.3c-2.1,0-4.1,0.9-5.5,2.6c-1.5,1.7-2.3,3.8-2.2,6.1
	c-0.1,2.2,0.7,4.3,2.2,5.9c1.4,1.6,3.4,2.4,5.5,2.4h190.6c4.5,0.1,8.3-3.5,8.3-8.1c0-0.1,0-0.2,0-0.2c0-2.3-0.8-4.5-2.4-6.1
	C579.3,327.6,577.1,326.6,574.9,326.7z M703.2,343.6H631c-2.1,0-4.1-0.8-5.5-2.4c-1.5-1.6-2.3-3.7-2.2-5.9c0-2.2,0.8-4.4,2.2-6.1
	c1.3-1.6,3.3-2.6,5.5-2.6h72.2c2.3,0,4.4,0.9,5.9,2.6c1.6,1.6,2.4,3.8,2.4,6.1c0.1,4.5-3.6,8.3-8.1,8.3
	C703.4,343.6,703.3,343.6,703.2,343.6z M569.7,389.1c-0.8,0-1.5-0.2-2.2-0.5c-0.8-0.3-1.5-0.7-2.2-1.1c-1.8-1.5-3-3.5-3.4-5.8
	c-0.3-2,0.2-4.1,1.4-5.8l122.9-169c1.3-1.7,3.2-2.9,5.3-3.4c2.2-0.5,4.6,0.1,6.3,1.8c1.9,1,3.2,3,3.4,5.1c0.3,2.2-0.2,4.5-1.4,6.4
	L576.8,385.6C575.1,387.8,572.5,389.1,569.7,389.1z M673,316.7c-2.9,0-5.8-0.6-8.5-1.9c-2.6-1.2-4.9-3.1-6.6-5.4
	c-3.9-6.2-4.5-13.4-1.9-21.8c0.7-2.2,2.2-4,4.2-5.1c1.8-1.1,4-1.1,5.8,0c2.2,0.7,4,2.2,5.1,4.2c1.1,2,1.3,4.3,0.6,6.4
	c-0.6,1.4-0.9,2.8-1,4.3c-0.1,0.9,0.1,1.7,0.6,2.4c0.2,0,0.3,0,0.5,0.2c0.4,0.2,0.7,0.2,1.1,0.2c2.8,0,6-1,9.6-3
	c4.1-2.4,8-5.2,11.5-8.5c4.5-4,8.6-8.4,12.5-13c4.4-5.2,8.5-10.7,12.2-16.5c6.2-9.6,10.4-17.6,12.7-24c2.2-6.4,3.3-10.7,3-12.8
	c-3.6,0-7.5,1.2-11.7,3.7c-3.5,2-6.8,4.3-9.8,6.9c-1.7,1.5-3.9,2.2-6.1,1.9c-2.2-0.1-4.2-1.2-5.5-2.9c-1.7-1.6-2.5-3.8-2.4-6.1
	c0-2.2,1.2-4.3,3-5.4c0.4-0.4,1.6-1.4,3.5-3c2.3-1.9,4.8-3.5,7.4-5c3.2-1.8,6.6-3.4,10.1-4.6c3.6-1.4,7.5-2.1,11.4-2.1
	c3.6,0,6.4,0.6,8.3,1.8c1.6,0.9,2.9,2.1,3.8,3.7c1.7,1.3,2.9,3.1,3.5,5.1c0.6,2.2,1,4.4,1,6.7c-0.1,4.6-0.9,9.1-2.4,13.4
	c-1.7,5.2-3.8,10.2-6.2,15c-2.6,5.1-5.5,10.1-8.7,14.9c-3.2,4.8-6.3,9.2-9.3,13.3c-2.6,3.4-5.8,7.3-9.6,11.5
	c-3.9,4.3-8.1,8.4-12.5,12.2c-4.4,3.8-9.2,7-14.3,9.6C683.6,315.4,678.4,316.7,673,316.7z M1061.2,270.7c-1,0.5-2,1.2-2.9,1.9
	c-3,1.9-6.7,4.3-11.1,7.2s-9,5.7-13.8,8.5c-4.8,2.8-9.6,5.3-14.4,7.5c-4,2-8.3,3.3-12.7,4c1.8-3.5,3.9-6.8,6.1-10.1
	c2.8-4.2,6.2-8.7,10.3-13.8c4.1-5,8.6-10.3,13.6-15.8c5-5.5,10.4-11.1,16.2-16.6c1.7-1.6,2.6-3.8,2.6-6.1c0.1-2.2-0.9-4.3-2.6-5.8
	c-3.1-3.3-8.3-3.4-11.5-0.3c-0.1,0.1-0.2,0.2-0.3,0.3c-0.2,0.2-1.1,1.1-2.7,2.7c-1.6,1.6-3.6,3.8-6.1,6.6c-2.5,2.8-5.3,5.9-8.5,9.4
	c-3.2,3.5-6.4,7.2-9.6,11c-5.3,6.1-10.3,12.4-14.9,19c-3,4.2-5.5,8.7-7.7,13.4c-1.6,3.7-2.4,6.8-2.4,9.1c-0.1,2.1,0.4,4.2,1.3,6.1
	c0.9,1.8,2.2,3.3,3.7,4.6c2,2,5.4,3,10.1,3c4.7-0.1,9.4-1,13.8-2.7c5.5-2,10.9-4.3,16-7c5.6-2.9,11.2-6.1,17-9.8
	c5.8-3.6,11.4-7.3,17-10.9c0.9-0.7,1.9-1.4,2.9-1.9c0.9-0.5,1.8-1,2.6-1.6c1.7-1.3,2.9-3.2,3.4-5.3c0.5-2.1,0.1-4.4-1.1-6.2
	c-1.2-1.8-3-3-5.1-3.4c-2.2-0.6-4.5-0.1-6.4,1.1C1063,269.7,1062.1,270.2,1061.2,270.7z M934.8,315.1c1.9,1.6,4.2,2.7,6.6,3.2
	c2.3,0.4,4.6,0.6,6.9,0.6c6.6-0.1,13-1.9,18.6-5.3c5.9-3.3,11.4-7.2,16.4-11.7c3.2-2.9,3.4-7.8,0.6-10.9c-0.2-0.2-0.4-0.4-0.6-0.6
	c-1.4-1.8-3.5-2.9-5.8-3c-2.2-0.1-4.3,0.8-5.8,2.4c-4.4,4.3-9.5,7.9-15.1,10.6c-5.3,2.6-9.5,2.9-12.5,1c-0.3-0.7-0.4-1.5-0.3-2.2
	c0.2-3.8,2.1-8.9,5.8-15.2c4.1-7,9-13.5,14.4-19.5c6.4-7.1,13.4-13.7,20.9-19.7c7.6-6.2,15.9-11.5,24.7-15.7
	c3.2-1.5,6.6-2.9,10.3-4.2c3.6-1.3,7.4-2.1,11.2-2.4c3.8-0.3,7.6-0.1,11.4,0.6c3.9,0.8,7.7,2.4,11.1,4.6c1.7,1.4,3.9,2,6.1,1.6
	c2.1-0.4,4.1-1.5,5.5-3.2c1.3-1.8,1.8-4.1,1.4-6.2c-0.3-2.2-1.5-4.1-3.4-5.3c-8.1-5.7-17.7-8.8-27.6-8.8
	c-10.3-0.1-21.4,2.5-33.4,7.8c-9.4,4.7-18.2,10.3-26.3,17c-8.5,6.8-16.5,14.2-23.9,22.2c-6.7,7.2-12.7,15.2-17.6,23.7
	c-4.6,8-7.1,15.1-7.5,21.3c-0.2,4.9,0.6,8.7,2.6,11.5C930.8,311.7,932.6,313.6,934.8,315.1z M1155.4,222.8c2.1,0.6,4.3,0,5.9-1.4
	c4.5-3.3,9.3-6.2,14.3-8.8c3.3-1.6,6.2-2,8.8-1.1c0.3,0.9,0.3,1.9,0.2,2.9c-0.3,2.4-1,4.7-1.9,6.9c-1.7,4.2-3.6,8.2-5.8,12.2
	c-2.7,5-6.4,11.2-11.1,18.4c-3.2,4.9-6.6,9.9-10.3,14.9c-3.6,5-7.2,9.8-10.6,14.4c-3.4,4.6-6.6,8.8-9.6,12.6c-3,3.8-5.4,7-7.4,9.6
	c-1.6,1.6-2.4,4-2.1,6.2c0.2,2,1.2,3.9,2.7,5.3c1.5,1.3,3.5,2,5.4,1.9c1.2,0,2.3-0.4,3.4-1c1.2-0.6,2.3-1.4,3.4-2.2
	c11.8-14.9,21.7-28.2,29.8-39.7c7-9.7,13.5-19.8,19.4-30.2c4.8-8.6,8.1-15.9,9.8-21.9c1.7-6,2-11,1-15c-1-2.5-2.4-4.7-4.2-6.7
	c-1.7-1.9-3.9-3.3-6.4-3.8c-3.4-1.2-7-1.7-10.6-1.4c-3.4,0.3-6.8,1.1-9.9,2.4c-3.2,1.3-6.3,3-9.1,5c-2.9,2-5.6,4-8.2,5.9
	c-1.7,1.4-2.8,3.3-3.4,5.4c-0.5,2.1-0.3,4.2,0.8,6.1C1151.2,221.1,1153.2,222.3,1155.4,222.8L1155.4,222.8z M1065.9,305.7
	c0.3,2.2,1.4,4.2,3,5.6c1.5,1.1,3.3,1.7,5.1,1.6c2.5,0,4.9-1.2,6.4-3.2c15.6-19.8,28-36.1,37.2-48.7c9.2-12.6,16.1-22.7,20.7-30.4
	s7.3-13.6,8-17.6c0.8-4,0.4-7.4-1.1-9.9c-1.2-2.1-2.8-3.9-4.7-5.4c-2-1.7-5.2-2.6-9.5-2.6c-2.3,0-4.5,0.8-6.1,2.4
	c-1.7,1.5-2.6,3.7-2.6,5.9c-0.1,2,0.7,3.9,2.1,5.3c1.4,1.4,3.1,2.3,5,2.7c-1.3,3.8-4.4,9.6-9.5,17.1c-5,7.6-10.7,15.7-17,24.5
	c-6.3,8.7-12.7,17.3-19.1,25.8c-6.4,8.4-11.8,15.4-16,21C1066.3,301.3,1065.5,303.5,1065.9,305.7L1065.9,305.7z M1264.6,271.3
	c-1.1-1.7-2.9-3-5-3.4c-2.3-0.5-4.6-0.1-6.6,1.1l-5.1,3.5c-2.6,1.7-5.8,3.8-9.8,6.4c-4,2.6-8.1,5.1-12.5,7.7
	c-4.4,2.6-8.8,4.9-13.2,7c-3.9,1.9-7.9,3.6-12,5.1c2.9-4.3,6-8.5,9.3-12.5c3.8-4.7,7.5-9.2,10.9-13.4c13.3-16,23.4-29.3,30.3-39.9
	c6.9-10.6,9.1-19.6,6.6-27c-0.8-2-1.9-3.8-3.2-5.4c-1.7-2.3-4.6-4.1-8.7-5.1c-7-1.8-14.3-0.9-20.7,2.4c-6.2,3.2-12.1,6.9-17.8,11
	c-1.9,1.1-3.2,3.1-3.4,5.3c-0.4,2.2,0.1,4.4,1.4,6.2c1.3,1.8,3.4,3,5.6,3.4c2.1,0.4,4.2-0.2,5.9-1.4c5.6-3.8,10.3-6.8,14.1-9
	c3.9-2.1,7.4-2.8,10.6-1.9h0.3c-0.2,1.8-0.6,3.7-1.1,5.4c-0.8,2.8-3.3,7.1-7.5,13.1c-3.6,5.1-7.7,10.4-12,15.8
	c-4.4,5.4-8.9,10.9-13.6,16.5c-10.9,13.2-18.6,23.3-22.9,30.2s-5.4,12.9-3.1,17.8c0.8,1.5,1.8,2.9,3.1,4c1.6,1.6,4.4,2.4,8.5,2.4
	c4.8-0.1,9.6-1,14.1-2.7c5.5-2,10.9-4.3,16.1-7c5.5-2.9,11.2-6.1,17-9.8c5.8-3.6,11.4-7.3,17-10.9c0.7-0.8,1.6-1.4,2.6-1.9
	c0.9-0.5,1.8-1,2.6-1.6c1.7-1.3,2.9-3.2,3.4-5.3C1266.3,275.4,1265.9,273.1,1264.6,271.3L1264.6,271.3z M1218.7,326.7H880.3
	c-2.3,0-4.4,0.9-5.9,2.6c-1.6,1.6-2.4,3.8-2.4,6.1c-0.1,4.5,3.6,8.3,8.1,8.3c0.1,0,0.2,0,0.2,0h338.5c2.3,0,4.5-0.8,6.1-2.4
	c1.7-1.5,2.6-3.7,2.6-5.9C1227.3,330.6,1223.5,326.7,1218.7,326.7L1218.7,326.7z M1287.1,442.9H66.8c-4.5,0-8.1-3.6-8.1-8
	s3.6-8.1,8-8.1c0,0,0,0,0,0h1220.3c20.8,0,37.7-16.8,37.7-37.6V53.8c0-20.8-16.9-37.6-37.7-37.6H53.9c-20.8,0-37.7,16.8-37.7,37.6
	v234.8c0,20.8,16.9,37.6,37.7,37.6c4.5,0,8.1,3.6,8.1,8s-3.6,8.1-8,8.1c0,0,0,0,0,0c-29.7,0-53.8-24.1-53.9-53.8V53.8
	C0.1,24,24.2,0,53.9,0h1233.2c29.7,0,53.8,24.1,53.9,53.8v335.3C1340.9,418.8,1316.8,442.9,1287.1,442.9L1287.1,442.9z"/>
</svg>
