<?xml version="1.0" encoding="UTF-8"?>
<!DOCTYPE svg PUBLIC "-//W3C//DTD SVG 1.1//EN" "http://www.w3.org/Graphics/SVG/1.1/DTD/svg11.dtd">
<svg version="1.1" xmlns="http://www.w3.org/2000/svg" xmlns:xlink="http://www.w3.org/1999/xlink" x="0" y="0" width="180.224" height="180.224" viewBox="0, 0, 180.224, 180.224">
  <g id="レイヤー_1">
    <path d="M71.578,78.295 L56.668,78.295 C55.685,78.315 54.866,77.517 54.846,76.534 C54.846,76.514 54.846,76.493 54.846,76.472 C54.846,75.981 55.03,75.51 55.378,75.141 C55.706,74.773 56.177,74.568 56.668,74.588 L71.578,74.588 C72.069,74.588 72.54,74.793 72.868,75.141 C73.216,75.49 73.4,75.981 73.4,76.472 C73.421,77.455 72.622,78.274 71.639,78.295 C71.618,78.295 71.598,78.295 71.578,78.295 z" fill="#000000"/>
    <path d="M70.656,56.689 C70.84,56.955 71.086,57.201 71.352,57.365 C71.618,57.549 71.926,57.61 72.254,57.57 L80.855,57.365 C81.387,57.385 81.879,57.18 82.227,56.811 C82.575,56.463 82.76,55.972 82.76,55.48 C82.76,54.989 82.575,54.538 82.227,54.19 C81.879,53.842 81.429,53.637 80.937,53.596 L72.254,53.883 C71.762,53.883 71.311,54.067 70.963,54.415 C70.615,54.763 70.41,55.214 70.37,55.706 C70.41,55.89 70.451,56.074 70.513,56.258 C70.554,56.402 70.615,56.546 70.656,56.689 z" fill="#000000"/>
    <path d="M98.673,52.552 L98.673,52.552 C98.693,52.081 98.939,51.63 99.307,51.323 C99.41,51.241 99.676,51.016 100.086,50.667 C100.598,50.258 101.13,49.89 101.704,49.582 C102.421,49.193 103.158,48.866 103.915,48.578 C104.714,48.292 105.554,48.128 106.394,48.128 C107.192,48.128 107.786,48.271 108.216,48.517 C108.565,48.702 108.851,48.968 109.056,49.316 C109.445,49.602 109.711,49.992 109.834,50.442 C109.978,50.934 110.039,51.426 110.039,51.917 C110.018,52.92 109.834,53.924 109.506,54.866 C109.118,56.013 108.667,57.098 108.134,58.163 C107.582,59.29 106.946,60.375 106.25,61.419 C105.554,62.485 104.878,63.447 104.222,64.328 C103.67,65.065 102.974,65.905 102.134,66.846 C101.294,67.789 100.373,68.69 99.41,69.509 C98.468,70.328 97.423,71.025 96.297,71.598 C95.273,72.13 94.146,72.438 92.979,72.438 C92.344,72.438 91.71,72.294 91.136,72.008 C90.562,71.742 90.071,71.332 89.702,70.82 C88.883,69.468 88.74,67.891 89.293,66.069 C89.436,65.598 89.764,65.188 90.194,64.942 C90.562,64.717 91.054,64.717 91.443,64.942 C91.914,65.086 92.324,65.413 92.57,65.843 C92.815,66.274 92.856,66.765 92.713,67.236 C92.59,67.522 92.529,67.85 92.508,68.178 C92.488,68.362 92.549,68.567 92.651,68.71 C92.693,68.71 92.734,68.731 92.754,68.751 C92.836,68.792 92.918,68.813 93,68.792 C93.594,68.792 94.29,68.587 95.089,68.137 C95.99,67.605 96.83,66.99 97.608,66.274 C98.57,65.393 99.492,64.45 100.331,63.447 C101.294,62.3 102.195,61.092 102.994,59.842 C104.346,57.754 105.267,55.992 105.758,54.6 C106.23,53.186 106.455,52.265 106.414,51.794 C105.615,51.794 104.755,52.06 103.854,52.593 C103.096,53.022 102.379,53.514 101.724,54.088 C101.355,54.415 100.885,54.579 100.393,54.518 C99.922,54.498 99.492,54.251 99.205,53.883 C98.837,53.534 98.652,53.043 98.673,52.552 z" fill="#000000"/>
    <path d="M99.102,49.193 L99.102,49.193 C99.164,49.685 99.062,50.197 98.795,50.565 L72.008,87.429 C71.639,87.921 71.086,88.207 70.472,88.207 C70.308,88.207 70.144,88.166 69.98,88.105 C69.816,88.043 69.653,87.962 69.489,87.859 C69.099,87.552 68.834,87.102 68.751,86.61 C68.67,86.18 68.792,85.709 69.058,85.361 L95.846,48.414 C96.133,48.046 96.542,47.78 96.994,47.678 C97.485,47.575 98.018,47.718 98.366,48.066 C98.775,48.292 99.062,48.722 99.102,49.193 z" fill="#000000"/>
    <path d="M137.318,50.954 L137.318,50.954 C137.523,51.384 137.482,51.876 137.298,52.326 C137.032,52.777 136.642,53.105 136.171,53.31 C135.742,53.494 135.25,53.474 134.84,53.269 C134.41,53.043 134.082,52.654 133.939,52.183 C133.489,50.688 132.506,49.95 131.01,49.95 C130.007,49.971 129.024,50.197 128.102,50.606 C126.894,51.118 125.747,51.753 124.682,52.531 C123.371,53.474 122.142,54.538 121.037,55.685 C119.746,57.016 118.6,58.47 117.637,60.027 C116.326,62.075 115.548,63.774 115.323,65.126 C115.077,66.478 115.159,67.441 115.528,67.994 C115.63,68.198 115.753,68.382 115.917,68.526 C116.122,68.731 116.552,68.834 117.207,68.834 C118.743,68.834 120.299,68.362 121.856,67.461 C123.433,66.539 124.887,65.413 126.157,64.102 C127.386,62.853 128.471,61.44 129.331,59.904 C130.15,58.43 130.601,57.118 130.703,55.951 C130.806,55.214 130.724,54.763 130.498,54.62 C130.294,54.477 130.048,54.395 129.802,54.334 C129.331,54.251 128.901,53.986 128.614,53.596 C128.328,53.186 128.226,52.695 128.328,52.224 C128.348,51.753 128.594,51.302 128.983,51.036 C129.352,50.77 129.822,50.647 130.274,50.688 C131.625,50.914 132.67,51.528 133.386,52.51 C134.103,53.494 134.43,54.722 134.328,56.218 C134.185,57.754 133.611,59.454 132.608,61.317 C131.543,63.242 130.253,65.024 128.717,66.601 C127.14,68.239 125.317,69.653 123.33,70.758 C121.446,71.844 119.337,72.418 117.166,72.438 C114.974,72.438 113.336,71.557 112.21,69.775 C111.452,68.322 111.288,66.601 111.718,64.594 C112.128,62.587 113.09,60.457 114.586,58.163 C115.691,56.463 116.941,54.846 118.334,53.371 C119.624,51.978 121.037,50.729 122.573,49.623 C123.925,48.64 125.378,47.842 126.914,47.206 C128.205,46.654 129.577,46.346 130.97,46.326 C132.362,46.306 133.734,46.735 134.882,47.554 C136.008,48.414 136.868,49.602 137.318,50.954 z" fill="#000000"/>
    <path d="M125.358,74.588 L125.358,74.588 C125.85,74.588 126.321,74.793 126.669,75.162 C127.017,75.51 127.202,76.002 127.202,76.493 C127.202,76.493 127.202,76.514 127.202,76.534 C127.181,77.517 126.362,78.315 125.378,78.295 L83.825,78.295 C83.374,78.295 82.944,78.11 82.637,77.762 C82.309,77.414 82.125,76.943 82.146,76.472 C82.146,75.981 82.309,75.51 82.637,75.141 C82.923,74.793 83.374,74.588 83.825,74.588 L125.358,74.588 z" fill="#000000"/>
    <path d="M153.354,78.295 L153.354,78.295 C153.354,78.295 153.374,78.295 153.416,78.295 C154.398,78.274 155.198,77.455 155.177,76.472 C155.177,75.981 154.993,75.49 154.645,75.141 C154.317,74.793 153.846,74.588 153.354,74.588 L137.626,74.588 C137.175,74.588 136.725,74.793 136.438,75.141 C136.11,75.51 135.946,75.981 135.946,76.472 C135.926,76.943 136.11,77.414 136.438,77.762 C136.745,78.11 137.175,78.295 137.626,78.295 L153.354,78.295 z" fill="#000000"/>
    <path d="M124.252,88.228 L124.252,88.228 C124.846,88.228 125.419,87.941 125.788,87.47 L152.576,50.606 C152.842,50.197 152.965,49.705 152.883,49.214 C152.842,48.742 152.555,48.312 152.146,48.087 C151.778,47.718 151.266,47.575 150.774,47.698 C150.323,47.8 149.914,48.066 149.627,48.435 L122.839,85.381 C122.573,85.73 122.45,86.18 122.532,86.63 C122.614,87.122 122.88,87.552 123.269,87.88 C123.433,87.982 123.597,88.064 123.761,88.126 C123.925,88.187 124.088,88.228 124.252,88.228 z" fill="#000000"/>
    <path d="M146.78,72.418 L146.78,72.418 C147.927,72.418 149.074,72.13 150.057,71.618 C151.183,71.045 152.228,70.349 153.17,69.53 C154.133,68.69 155.034,67.81 155.894,66.867 C156.713,65.946 157.43,65.106 157.982,64.348 C158.638,63.467 159.314,62.485 160.01,61.44 C160.706,60.395 161.342,59.31 161.894,58.184 C162.447,57.118 162.898,56.013 163.266,54.886 C163.594,53.924 163.778,52.941 163.799,51.938 C163.799,51.426 163.738,50.934 163.594,50.462 C163.451,50.012 163.185,49.623 162.816,49.336 C162.611,49.009 162.325,48.722 161.976,48.538 C161.546,48.271 160.952,48.149 160.154,48.149 C159.314,48.149 158.474,48.292 157.675,48.599 C156.898,48.866 156.16,49.214 155.464,49.602 C154.91,49.91 154.378,50.278 153.866,50.688 C153.436,51.036 153.17,51.262 153.088,51.343 C152.699,51.61 152.433,52.04 152.433,52.531 C152.412,53.022 152.597,53.514 152.965,53.862 C153.252,54.251 153.682,54.477 154.153,54.498 C154.645,54.538 155.115,54.395 155.484,54.067 C156.139,53.514 156.856,53.002 157.614,52.572 C158.536,52.04 159.375,51.774 160.174,51.774 C160.235,52.245 160.01,53.186 159.518,54.579 C159.027,55.972 158.106,57.733 156.754,59.822 C155.955,61.092 155.054,62.28 154.091,63.426 C153.252,64.43 152.33,65.372 151.368,66.253 C150.59,66.97 149.75,67.584 148.849,68.117 C148.07,68.546 147.374,68.772 146.76,68.772 C146.678,68.772 146.596,68.772 146.514,68.731 C146.494,68.69 146.453,68.69 146.411,68.69 C146.289,68.526 146.248,68.342 146.268,68.158 C146.289,67.83 146.35,67.522 146.473,67.215 C146.616,66.765 146.555,66.253 146.33,65.822 C146.084,65.393 145.674,65.065 145.203,64.922 C144.834,64.696 144.343,64.696 143.954,64.922 C143.524,65.167 143.196,65.577 143.053,66.048 C142.5,67.85 142.643,69.448 143.483,70.799 C143.851,71.311 144.343,71.721 144.917,71.987 C145.51,72.274 146.146,72.418 146.78,72.418 z" fill="#000000"/>
    <path d="M65.802,148.603 C65.331,148.275 64.922,147.845 64.635,147.374 C64.226,146.76 64.041,145.92 64.082,144.855 C64.164,143.503 64.717,141.947 65.72,140.206 C66.806,138.342 68.096,136.602 69.57,135.025 C71.168,133.284 72.909,131.666 74.773,130.171 C76.534,128.717 78.459,127.488 80.507,126.464 C83.108,125.297 85.545,124.723 87.778,124.744 C89.948,124.744 92.037,125.419 93.798,126.669 C94.208,126.914 94.474,127.345 94.536,127.816 C94.618,128.307 94.494,128.798 94.229,129.188 C93.922,129.557 93.512,129.802 93.041,129.884 C92.57,129.986 92.078,129.843 91.71,129.536 C90.972,129.045 90.153,128.696 89.293,128.512 C88.474,128.348 87.654,128.307 86.814,128.369 C85.975,128.45 85.156,128.614 84.357,128.901 C83.579,129.167 82.821,129.474 82.125,129.802 C80.2,130.724 78.398,131.87 76.738,133.222 C75.1,134.533 73.585,135.966 72.192,137.523 C71.004,138.834 69.939,140.267 69.038,141.783 C68.239,143.155 67.81,144.261 67.768,145.101 C67.727,145.265 67.768,145.449 67.83,145.592 C68.485,146.022 69.386,145.941 70.554,145.387 C71.782,144.794 72.888,144.015 73.851,143.074 C74.158,142.705 74.629,142.52 75.1,142.541 C75.612,142.562 76.062,142.807 76.37,143.196 C76.411,143.237 76.452,143.278 76.493,143.319 C77.128,144.015 77.066,145.08 76.37,145.715 C75.285,146.698 74.076,147.558 72.806,148.275 C71.127,149.299 69.161,149.668 67.236,149.299 C66.703,149.197 66.212,148.951 65.802,148.603 z" fill="#000000"/>
    <path d="M93.368,138.875 C93.553,138.773 93.737,138.67 93.901,138.526 C94.31,138.24 94.822,138.158 95.294,138.281 C95.765,138.363 96.154,138.629 96.42,139.018 C96.686,139.428 96.789,139.919 96.666,140.39 C96.563,140.841 96.297,141.25 95.928,141.538 C95.765,141.66 95.58,141.783 95.375,141.886 C95.15,142.008 94.946,142.152 94.741,142.315 C93.532,143.094 92.283,143.893 91.034,144.691 C89.784,145.49 88.535,146.186 87.326,146.821 C86.2,147.415 85.033,147.927 83.825,148.357 C82.862,148.726 81.838,148.93 80.814,148.951 C79.79,148.951 79.053,148.746 78.602,148.296 C78.172,147.866 77.906,147.518 77.803,147.292 C77.598,146.882 77.496,146.411 77.517,145.961 C77.517,145.449 77.701,144.794 78.05,143.974 C78.52,142.93 79.074,141.947 79.729,141.026 C80.732,139.592 81.818,138.199 82.985,136.868 C83.682,136.028 84.378,135.23 85.074,134.451 C85.77,133.673 86.385,132.997 86.917,132.382 C87.45,131.768 87.9,131.298 88.248,130.949 C88.597,130.601 88.802,130.396 88.842,130.355 C88.862,130.314 88.904,130.294 88.924,130.274 C89.641,129.598 90.767,129.638 91.443,130.355 C91.812,130.662 92.017,131.113 91.996,131.605 C92.017,132.117 91.812,132.587 91.443,132.936 C90.194,134.165 89.006,135.373 87.921,136.581 C86.835,137.79 85.832,138.936 84.951,140.042 C84.07,141.148 83.333,142.152 82.718,143.053 C82.227,143.77 81.777,144.507 81.387,145.265 C82.35,145.122 83.292,144.814 84.152,144.384 C85.218,143.893 86.262,143.36 87.306,142.746 C88.35,142.131 89.354,141.517 90.317,140.882 C91.279,140.247 92.078,139.714 92.734,139.305 C92.938,139.141 93.143,138.998 93.368,138.875 z" fill="#000000"/>
    <path d="M127.714,151.122 L127.714,151.122 C128.738,151.142 129.577,151.982 129.577,153.006 C129.598,153.498 129.393,153.969 129.024,154.296 C128.655,154.645 128.184,154.829 127.693,154.829 L53.903,154.829 C53.883,154.829 53.862,154.829 53.842,154.829 C52.859,154.808 52.06,153.989 52.081,153.006 C52.081,152.514 52.265,152.023 52.613,151.675 C52.941,151.306 53.412,151.122 53.903,151.122 L127.714,151.122 z" fill="#000000"/>
    <path d="M113.89,128.43 L113.89,128.43 C113.418,128.307 112.988,128.062 112.702,127.693 C112.456,127.283 112.394,126.812 112.517,126.362 C112.64,125.89 112.886,125.481 113.254,125.174 C113.807,124.764 114.402,124.334 115.036,123.883 C115.65,123.454 116.326,123.085 117.022,122.798 C117.719,122.511 118.456,122.327 119.194,122.266 C119.992,122.184 120.77,122.306 121.508,122.573 C122.04,122.696 122.532,123.003 122.901,123.413 C123.269,123.863 123.576,124.354 123.802,124.887 C124.047,125.788 123.966,126.874 123.597,128.184 C123.228,129.495 122.511,131.093 121.467,132.977 C120.156,135.25 118.743,137.462 117.227,139.592 C115.446,142.131 113.275,145.019 110.715,148.275 C110.49,148.459 110.244,148.623 109.978,148.766 C109.752,148.89 109.506,148.971 109.24,148.971 C108.81,148.971 108.38,148.828 108.053,148.542 C107.725,148.254 107.499,147.845 107.458,147.394 C107.397,146.882 107.561,146.391 107.909,146.022 C108.339,145.47 108.892,144.773 109.527,143.934 C110.162,143.094 110.878,142.172 111.616,141.169 C112.374,140.165 113.131,139.121 113.93,138.014 C114.709,136.909 115.466,135.823 116.162,134.758 C117.186,133.182 117.986,131.85 118.579,130.744 C119.07,129.884 119.48,128.983 119.849,128.082 C120.034,127.611 120.177,127.099 120.258,126.587 C120.279,126.382 120.279,126.157 120.218,125.952 C119.665,125.768 119.01,125.85 118.293,126.198 C117.207,126.771 116.162,127.406 115.179,128.123 C114.831,128.43 114.34,128.553 113.89,128.43 z" fill="#000000"/>
    <path d="M94.372,146.534 L94.372,146.534 C94.31,146.063 94.474,145.572 94.782,145.265 C95.723,144.056 96.891,142.52 98.283,140.677 C99.676,138.834 101.069,136.95 102.441,135.045 C103.813,133.141 105.042,131.358 106.148,129.7 C107.254,128.041 107.93,126.792 108.216,125.952 C107.806,125.87 107.418,125.666 107.131,125.358 C106.824,125.051 106.66,124.642 106.68,124.211 C106.66,123.72 106.865,123.249 107.234,122.921 C107.582,122.573 108.073,122.389 108.565,122.389 C109.506,122.389 110.182,122.573 110.633,122.942 C111.042,123.269 111.39,123.678 111.657,124.13 C111.985,124.682 112.066,125.419 111.902,126.3 C111.739,127.181 111.166,128.471 110.162,130.15 C109.158,131.81 107.663,134.042 105.656,136.786 C103.65,139.53 100.946,143.074 97.546,147.415 C97.218,147.845 96.706,148.111 96.154,148.111 C95.744,148.132 95.355,148.009 95.027,147.763 C94.679,147.435 94.434,147.006 94.372,146.534 z" fill="#000000"/>
    <path d="M137.707,139.018 L137.707,139.018 C137.994,139.428 138.076,139.919 137.933,140.431 C137.83,140.882 137.564,141.291 137.195,141.578 C137.032,141.701 136.847,141.824 136.642,141.926 C136.438,142.05 136.254,142.193 136.09,142.357 C134.882,143.134 133.632,143.934 132.382,144.732 C131.134,145.531 129.884,146.227 128.676,146.862 C127.55,147.456 126.382,147.968 125.174,148.398 C124.19,148.766 123.146,148.971 122.102,148.992 C121.221,148.992 120.606,148.808 120.258,148.459 C119.992,148.214 119.767,147.906 119.603,147.579 C119.07,146.494 119.296,145.203 120.258,143.688 C121.221,142.172 122.88,139.96 125.256,137.073 C126.28,135.864 127.262,134.656 128.226,133.468 C129.188,132.28 130.048,131.134 130.846,130.007 C131.768,128.696 132.322,127.754 132.485,127.14 C132.608,126.75 132.69,126.362 132.731,125.952 L132.67,125.952 C131.973,125.768 131.195,125.911 130.355,126.382 C129.515,126.853 128.491,127.509 127.283,128.348 C126.914,128.614 126.443,128.738 125.993,128.655 C125.502,128.574 125.051,128.328 124.764,127.918 C124.478,127.509 124.375,127.017 124.457,126.546 C124.498,126.075 124.764,125.645 125.194,125.399 C126.443,124.498 127.734,123.699 129.086,122.982 C130.458,122.245 132.075,122.061 133.591,122.45 C134.472,122.696 135.106,123.064 135.475,123.576 C135.762,123.945 135.987,124.334 136.171,124.764 C136.725,126.402 136.254,128.389 134.738,130.683 C133.222,132.977 131.01,135.885 128.123,139.387 C127.386,140.309 126.587,141.291 125.747,142.315 C125.03,143.176 124.354,144.098 123.72,145.039 C124.621,144.712 125.481,144.343 126.341,143.913 C127.304,143.442 128.266,142.93 129.208,142.377 C130.15,141.824 131.072,141.25 131.932,140.698 C132.792,140.145 133.509,139.674 134.062,139.305 L135.189,138.526 C135.618,138.261 136.13,138.158 136.622,138.281 C137.073,138.363 137.462,138.629 137.707,139.018 z" fill="#000000"/>
    <path d="M168.878,0 L168.878,0 C175.145,0 180.224,5.079 180.224,11.346 L180.224,168.878 C180.203,175.145 175.145,180.224 168.878,180.224 L13.824,180.224 C13.824,180.224 13.824,180.224 13.824,180.224 C12.841,180.224 12.062,179.446 12.062,178.462 C12.062,177.48 12.841,176.702 13.824,176.702 L168.878,176.702 C173.199,176.681 176.702,173.199 176.702,168.878 L176.702,11.346 C176.681,7.025 173.199,3.522 168.878,3.522 L11.346,3.522 C7.025,3.543 3.522,7.025 3.522,11.346 L3.522,142.869 C3.543,147.415 7.209,151.102 11.755,151.102 C12.738,151.102 13.517,151.9 13.517,152.862 C13.517,153.826 12.738,154.624 11.755,154.624 C5.263,154.624 0,149.361 0,142.889 L0,11.346 C0,5.079 5.079,0 11.346,0 L168.878,0 z" fill="#000000"/>
    <path d="M120.484,17.715 L120.484,17.715 C120.77,18.309 121.078,18.37 120.914,19.251 C120.402,21.525 119.767,23.347 118.149,25.416 C116.531,27.484 114.852,30.044 112.681,31.908 C110.51,33.771 107.909,34.734 104.878,35.021 C101.847,35.307 97.751,34.447 94.904,34.366 C92.058,34.283 90.03,35.205 87.778,36.126 C85.525,37.048 83.968,38.257 81.899,39.096 C81.08,39.445 80.61,39.445 79.934,39.076 C79.258,38.707 79.401,38.195 79.503,37.56 C79.606,36.926 79.77,36.373 80.302,35.881 C80.814,35.41 81.429,35.042 82.104,34.795 C85.278,33.587 87.778,32.072 91.362,31.396 C94.946,30.72 99.307,32.072 103.014,31.949 C106.722,31.826 109.732,30.106 112.128,27.586 C113.48,26.174 114.626,24.576 115.507,22.835 C113.09,24.269 110.326,25.764 107.909,25.621 C104.366,25.416 100.352,23.306 97.301,22.938 C94.249,22.569 92.139,22.938 89.662,23.429 C87.224,23.921 86.159,25.231 84.254,26.358 C83.927,26.788 83.64,27.238 83.394,27.71 C82.923,28.57 82.473,29.143 81.715,30.556 C79.708,34.345 77.496,38.031 75.08,41.574 C72.458,45.445 69.141,51.118 66.519,55.091 C63.898,59.064 61.092,62.935 58.409,66.355 C55.87,69.591 53.084,72.642 50.114,75.49 C47.288,78.234 44.114,80.486 41.124,82.309 C38.134,84.132 35.062,84.828 32.113,85.033 C28.61,85.278 26.03,84.337 23.47,82.678 C20.91,81.019 20.706,79.217 20.194,76.554 C19.947,75.285 20.48,74.199 21.013,72.99 C21.545,71.762 22.364,70.677 23.429,69.837 C24.597,68.854 25.948,68.096 27.402,67.584 C29.122,67.031 30.925,66.744 32.747,66.724 C33.935,66.724 35.123,66.867 36.27,67.154 C38.379,67.666 40.386,68.526 42.23,69.694 C42.926,70.103 43.582,70.594 44.175,71.147 C44.708,71.639 44.687,71.906 44.749,72.458 C44.81,73.011 44.646,73.339 44.318,73.728 C43.991,74.117 43.52,74.342 43.008,74.322 C42.475,74.322 42.189,74.178 41.718,73.79 C41.246,73.359 40.714,72.97 40.162,72.642 C39.465,72.233 38.728,71.885 37.99,71.557 C37.171,71.23 36.311,70.942 35.451,70.718 C34.55,70.513 33.649,70.39 32.747,70.39 C30.434,70.43 27.914,70.984 26.214,72.254 C24.514,73.523 23.982,74.65 23.798,76.554 C23.634,78.11 24.31,78.91 25.477,79.954 C26.194,80.589 27.095,80.958 28.262,81.162 C29.43,81.367 30.454,81.818 31.97,81.551 C34.878,81.06 37.355,80.61 40.162,78.766 C43.192,76.821 45.998,74.547 48.538,72.008 C51.323,69.222 53.944,66.232 56.361,63.119 C58.921,59.781 61.747,55.829 64.184,51.998 C66.622,48.169 70.001,42.598 72.376,39.076 C74.752,35.554 76.329,32.42 78.05,29.368 C78.93,27.791 79.339,27.341 79.913,26.358 C80.486,25.374 80.65,25.006 81.08,24.33 C81.449,23.757 81.634,23.593 82.022,23.409 C83.149,22.507 84.152,21.709 85.627,21.094 C87.306,20.337 89.088,19.825 90.91,19.558 C92.877,19.272 94.843,18.944 97.116,19.19 C99.39,19.435 101.806,20.418 104.162,21.278 C106.517,22.139 108.994,22.507 111.35,21.402 C113.705,20.296 115.548,18.658 117.617,17.47 C118.374,17.039 118.702,17.039 119.378,17.101 C119.398,17.101 119.398,17.101 119.419,17.101 C119.87,17.122 120.258,17.244 120.484,17.715 z" fill="#000000"/>
    <path d="M120.484,94.249 L120.484,94.249 C120.77,94.843 121.078,94.904 120.894,95.765 C120.382,98.018 119.746,99.881 118.129,101.929 C116.51,103.977 114.831,106.537 112.661,108.401 C110.49,110.264 107.889,111.227 104.858,111.514 C101.826,111.8 97.73,110.94 94.884,110.858 C92.037,110.776 90.01,111.698 87.757,112.619 C85.504,113.541 83.947,114.75 81.879,115.589 C81.06,115.938 80.589,115.938 79.913,115.569 C79.237,115.2 79.381,114.688 79.483,114.053 C79.586,113.418 79.749,112.866 80.282,112.374 C80.794,111.902 81.408,111.534 82.084,111.288 C85.258,110.08 87.757,108.565 91.341,107.889 C94.925,107.213 99.287,108.565 102.994,108.442 C106.701,108.318 109.711,106.598 112.107,104.079 C113.459,102.686 114.606,101.09 115.486,99.349 C113.07,100.802 110.306,102.277 107.889,102.134 C104.346,101.929 100.331,99.819 97.28,99.451 C94.229,99.082 92.119,99.451 89.641,99.942 C87.204,100.434 86.139,101.745 84.234,102.871 C83.906,103.301 83.62,103.752 83.374,104.222 C82.903,105.083 82.453,105.656 81.694,107.07 C79.688,110.858 77.476,114.545 75.059,118.088 C72.438,121.958 69.12,127.631 66.498,131.605 C63.877,135.578 61.071,139.448 58.389,142.869 C55.849,146.104 53.064,149.156 50.094,152.002 C47.268,154.747 44.094,157 41.103,158.822 C38.114,160.645 35.042,161.342 32.092,161.546 C28.59,161.792 26.01,160.85 23.45,159.191 C20.89,157.532 20.685,155.73 20.173,153.067 C19.927,151.798 20.459,150.712 20.992,149.504 C21.525,148.275 22.344,147.19 23.409,146.35 C24.576,145.367 25.928,144.61 27.382,144.098 C29.102,143.544 30.904,143.258 32.727,143.237 C33.915,143.258 35.102,143.401 36.25,143.667 C37.376,143.954 38.462,144.343 39.526,144.794 C40.469,145.203 41.37,145.694 42.23,146.227 C42.926,146.637 43.582,147.128 44.175,147.682 C44.708,148.173 44.687,148.459 44.749,148.992 C44.81,149.525 44.646,149.873 44.318,150.262 C43.991,150.651 43.52,150.876 43.008,150.856 C42.475,150.856 42.189,150.712 41.718,150.323 C41.246,149.893 40.714,149.504 40.162,149.176 C39.465,148.766 38.728,148.418 37.99,148.091 C37.171,147.763 36.311,147.477 35.451,147.251 C34.55,147.046 33.649,146.923 32.747,146.923 C30.434,146.965 27.914,147.518 26.214,148.787 C24.514,150.057 23.982,151.183 23.798,153.088 C23.634,154.645 24.31,155.443 25.477,156.488 C26.194,157.122 27.095,157.491 28.262,157.696 C29.43,157.901 30.454,158.331 31.97,158.085 C34.878,157.573 37.355,157.143 40.162,155.3 C43.192,153.354 45.998,151.081 48.538,148.542 C51.323,145.756 53.944,142.786 56.361,139.653 C58.921,136.315 61.747,132.362 64.184,128.533 C66.622,124.702 70.001,119.132 72.376,115.61 C74.752,112.087 76.329,108.954 78.05,105.902 C78.93,104.325 79.339,103.874 79.913,102.891 C80.486,101.909 80.65,101.54 81.08,100.864 C81.449,100.29 81.634,100.147 82.022,99.942 C83.149,99.042 84.152,98.242 85.627,97.628 C87.306,96.87 89.088,96.358 90.91,96.092 C92.877,95.806 94.843,95.478 97.116,95.723 C99.39,95.97 101.806,96.952 104.162,97.813 C106.517,98.673 108.994,99.021 111.35,97.935 C113.705,96.85 115.548,95.191 117.617,94.003 C118.374,93.573 118.702,93.573 119.378,93.634 C119.398,93.634 119.398,93.634 119.419,93.634 C119.87,93.655 120.258,93.778 120.484,94.249 z" fill="#000000"/>
  </g>
</svg>
