<?xml version="1.0" encoding="UTF-8"?>
<!DOCTYPE svg PUBLIC "-//W3C//DTD SVG 1.1//EN" "http://www.w3.org/Graphics/SVG/1.1/DTD/svg11.dtd">
<svg version="1.1" xmlns="http://www.w3.org/2000/svg" xmlns:xlink="http://www.w3.org/1999/xlink" x="0" y="0" width="201.15" height="66.435" viewBox="0, 0, 1341, 442.9">
  <g id="レイヤー_1">
    <path d="M552.1,66.5 C551.1,64.4 549.2,63.8 547.2,63.7 C547.1,63.7 547.1,63.7 547,63.7 C543.9,63.4 542.4,63.4 538.9,65.4 C529.4,70.8 521,78.4 510.1,83.4 C499.2,88.4 487.9,86.8 477.1,82.8 C466.3,78.8 455.2,74.4 444.8,73.2 C434.4,72 425.4,73.6 416.3,74.8 C408,76 399.8,78.4 392.1,81.8 C385.3,84.6 380.7,88.3 375.5,92.4 C373.7,93.3 372.8,94 371.2,96.6 C369.3,99.7 368.5,101.3 365.8,105.9 C363.1,110.5 361.3,112.4 357.3,119.7 C349.4,133.7 342.2,148 331.3,164.2 C320.4,180.4 304.9,205.8 293.7,223.4 C282.5,241 269.7,259 258,274.2 C246.9,288.5 234.9,302.1 222.1,314.9 C210.4,326.5 197.6,336.9 183.7,345.8 C170.8,354.3 159.4,356.3 146.1,358.5 C139.2,359.7 134.5,357.7 129.1,356.8 C123.7,355.9 119.6,354.2 116.3,351.3 C111,346.5 107.8,342.9 108.6,335.7 C109.5,327 111.9,321.9 119.7,316 C127.5,310.1 139,307.7 149.7,307.5 C153.9,307.5 158,308 162.1,309 C166.1,310 169.9,311.3 173.7,312.9 C177.1,314.4 180.4,316 183.7,317.9 C186.2,319.4 188.6,321.2 190.9,323.1 C193.1,324.8 194.4,325.6 196.8,325.5 C199.1,325.6 201.3,324.6 202.8,322.8 C204.3,321.3 205.1,319.1 204.8,317 C204.5,314.5 204.6,313.3 202.2,311 C199.5,308.5 196.5,306.3 193.3,304.4 C189.3,301.9 185.2,299.7 180.9,297.8 C176,295.7 171,294 165.9,292.7 C160.6,291.4 155.2,290.8 149.7,290.7 C141.4,290.8 133.1,292.1 125.1,294.7 C118.5,297 112.3,300.5 106.9,305 C102.1,308.8 98.2,313.8 95.8,319.5 C93.3,325.1 90.9,330 92.1,335.8 C94.5,348 95.3,356.3 107.1,363.8 C118.9,371.3 130.7,375.7 146.7,374.6 C160.2,373.7 174.3,370.5 188,362.2 C201.7,353.9 216.3,343.5 229.2,331 C242.8,318 255.5,304 267.3,289.2 C279.6,273.5 292.5,255.9 304.5,237.7 C316.5,219.5 331.8,193.5 343.7,175.9 C354.7,159.7 364.9,142.8 374.1,125.5 C377.5,119.1 379.7,116.4 381.8,112.4 C383,110.3 384.3,108.2 385.8,106.2 C394.5,101 399.4,95.1 410.6,92.8 C422,90.5 431.6,88.9 445.7,90.5 C459.8,92.1 478.1,101.9 494.3,102.8 C505.4,103.4 518.1,96.7 529.1,90.1 C525,98.1 519.8,105.4 513.6,111.8 C502.6,123.3 488.8,131.2 471.8,131.7 C454.8,132.2 434.8,126.1 418.4,129.1 C402,132.1 390.5,139.1 375.9,144.6 C372.8,145.7 370,147.4 367.6,149.6 C365.2,151.8 364.4,154.4 363.9,157.3 C363.4,160.2 362.8,162.5 365.9,164.2 C369,165.9 371.1,165.9 375,164.3 C384.5,160.4 391.6,154.9 402,150.7 C412.4,146.5 421.6,142.3 434.7,142.6 C447.8,142.9 466.5,146.9 480.4,145.6 C494.3,144.3 506.2,139.9 516.2,131.3 C526.2,122.7 533.9,111.1 541.3,101.6 C548.7,92.1 551.7,83.8 554,73.4 C554.8,69.6 553.4,69.3 552.1,66.5 z M1185.6,66.5 C1184.6,64.4 1182.7,63.8 1180.7,63.7 C1180.6,63.7 1180.6,63.7 1180.5,63.7 C1177.4,63.4 1175.9,63.4 1172.4,65.4 C1162.9,70.8 1154.5,78.4 1143.6,83.4 C1132.7,88.4 1121.4,86.8 1110.6,82.8 C1099.8,78.8 1088.7,74.4 1078.3,73.2 C1067.9,72 1058.9,73.6 1049.8,74.8 C1041.5,76 1033.3,78.4 1025.6,81.8 C1018.8,84.6 1014.2,88.3 1009,92.4 C1007.2,93.3 1006.3,94 1004.7,96.6 C1002.8,99.7 1002,101.3 999.4,105.9 C996.8,110.5 994.9,112.4 990.9,119.7 C983,133.7 975.8,148 964.9,164.2 C954,180.4 938.5,205.8 927.3,223.4 C916.1,241 903.1,259 891.4,274.3 C880.3,288.6 868.3,302.2 855.5,315 C843.8,326.6 831,337 817.1,345.9 C804.2,354.4 792.8,356.4 779.5,358.6 C772.6,359.8 767.8,357.8 762.5,356.9 C757.2,356 753,354.3 749.7,351.4 C744.4,346.6 741.3,343 742,335.8 C742.9,327.1 745.3,322 753.1,316.1 C760.9,310.2 772.4,307.8 783.1,307.6 C787.3,307.6 791.4,308.1 795.4,309.1 C799.4,310.1 803.2,311.4 807,313 C810.4,314.5 813.7,316.1 817,318 C819.5,319.5 821.9,321.3 824.2,323.2 C826.4,324.9 827.7,325.7 830.1,325.6 C832.4,325.7 834.6,324.7 836.1,322.9 C837.6,321.4 838.4,319.2 838.1,317.1 C837.8,314.6 837.9,313.4 835.5,311.1 C832.8,308.6 829.8,306.4 826.6,304.5 C822.6,302 818.5,299.8 814.2,297.9 C809.3,295.8 804.3,294.1 799.2,292.8 C793.9,291.5 788.5,290.9 783,290.8 C774.7,290.9 766.4,292.2 758.4,294.8 C751.8,297.1 745.6,300.6 740.2,305.1 C735.4,308.9 731.5,313.9 729.1,319.6 C726.6,325.2 724.2,330.1 725.4,335.9 C727.8,348.1 728.6,356.4 740.4,363.9 C752.2,371.4 764,375.8 780,374.7 C793.5,373.8 807.6,370.6 821.3,362.3 C835,354 849.5,343.6 862.5,331.1 C876.1,318.1 888.8,304.1 900.6,289.3 C912.9,273.6 925.8,256 937.8,237.8 C949.8,219.6 965,193.6 977,176 C988,159.8 998.2,142.9 1007.4,125.6 C1010.8,119.2 1013,116.5 1015.1,112.5 C1016.3,110.4 1017.6,108.3 1019,106.3 C1027.7,101.1 1032.6,95.2 1043.8,92.9 C1055.2,90.6 1064.8,89 1078.9,90.6 C1093,92.2 1111.3,102 1127.5,102.9 C1138.6,103.5 1151.3,96.8 1162.3,90.2 C1158.2,98.2 1153,105.5 1146.8,111.9 C1135.8,123.4 1122,131.3 1105,131.8 C1088,132.3 1068,126.2 1051.6,129.2 C1035.2,132.2 1023.7,139.2 1009.1,144.7 C1006,145.8 1003.2,147.5 1000.8,149.7 C998.4,151.9 997.6,154.5 997.1,157.4 C996.6,160.3 996,162.6 999,164.3 C1002,166 1004.2,166 1008.1,164.4 C1017.5,160.5 1024.7,155 1035.1,150.8 C1045.5,146.6 1054.7,142.4 1067.8,142.7 C1080.9,143 1099.6,147 1113.5,145.7 C1127.4,144.4 1139.3,140 1149.3,131.4 C1159.3,122.8 1167,111.2 1174.4,101.7 C1181.8,92.2 1184.7,83.9 1187.1,73.5 C1188.3,69.6 1186.9,69.3 1185.6,66.5 L1185.6,66.5 z M328.2,343.6 L259.9,343.6 C255.4,343.7 251.6,340.1 251.6,335.5 C251.6,335.4 251.6,335.3 251.6,335.2 C251.6,332.9 252.4,330.7 254,329.1 C255.5,327.4 257.7,326.5 259.9,326.5 L328.2,326.5 C330.5,326.5 332.6,327.4 334.1,329.1 C335.7,330.7 336.5,332.9 336.5,335.2 C336.6,339.7 332.9,343.5 328.4,343.5 C328.3,343.6 328.3,343.6 328.2,343.6 z M328.7,244.7 C328.5,244.1 328.3,243.4 328.1,242.8 C327.8,242 327.6,241.1 327.5,240.2 C327.7,238 328.6,235.9 330.2,234.3 C331.8,232.7 333.9,231.8 336.1,231.9 L375.9,230.6 C378.1,230.8 380.2,231.7 381.8,233.3 C383.4,234.9 384.3,237 384.2,239.2 C384.2,241.5 383.4,243.7 381.8,245.3 C380.2,247 377.9,247.9 375.5,247.9 L336,248.9 C334.5,249.1 333,248.8 331.8,247.9 C330.6,247.1 329.5,246 328.7,244.7 L328.7,244.7 z M454.4,210.5 C454.2,208.3 452.9,206.4 451,205.4 C449.4,203.8 447,203.1 444.7,203.6 C442.6,204 440.7,205.2 439.4,207 L316.6,376 C315.3,377.6 314.8,379.7 315.2,381.8 C315.6,384.1 316.8,386.1 318.6,387.6 C319.3,388.1 320.1,388.4 320.8,388.7 C321.5,389 322.3,389.2 323,389.2 C325.8,389.2 328.4,387.9 330.1,385.7 L453,216.9 C454.2,215 454.8,212.7 454.4,210.5 L454.4,210.5 z M452.5,225.8 C452.4,228.1 453.2,230.3 454.9,231.9 C456.2,233.6 458.2,234.7 460.4,234.8 C462.6,235.1 464.8,234.4 466.5,232.9 C469.5,230.3 472.8,228 476.3,226 C480.5,223.5 484.4,222.3 488,222.3 C488.2,224.4 487.2,228.7 485,235.1 C482.8,241.5 478.5,249.5 472.3,259.1 C468.6,264.9 464.5,270.4 460.1,275.6 C456.2,280.2 452,284.5 447.6,288.6 C444.1,291.8 440.2,294.7 436.1,297.1 C432.5,299.1 429.3,300.1 426.5,300.1 C426.1,300.2 425.7,300.1 425.4,299.9 C425.3,299.8 425.1,299.7 424.9,299.7 C424.4,299 424.2,298.2 424.3,297.3 C424.4,295.8 424.7,294.4 425.3,293 C426,290.9 425.7,288.6 424.7,286.6 C423.6,284.6 421.7,283.1 419.6,282.4 C417.8,281.3 415.6,281.3 413.8,282.4 C411.8,283.5 410.3,285.4 409.6,287.5 C407,295.8 407.7,303.1 411.5,309.3 C413.2,311.6 415.5,313.5 418.1,314.7 C420.8,316 423.7,316.6 426.6,316.6 C431.9,316.6 437.1,315.2 441.8,312.8 C446.9,310.2 451.7,307 456.1,303.2 C460.5,299.4 464.7,295.4 468.6,291 C472.5,286.7 475.7,282.9 478.2,279.5 C481.2,275.5 484.3,271 487.5,266.2 C490.7,261.4 493.6,256.5 496.2,251.3 C498.7,246.4 500.7,241.4 502.5,236.3 C504,232 504.8,227.4 504.9,222.9 C504.9,220.6 504.6,218.4 503.9,216.2 C503.3,214.2 502.1,212.4 500.4,211.1 C499.5,209.5 498.1,208.3 496.6,207.4 C494.7,206.2 491.9,205.6 488.3,205.6 C484.4,205.6 480.6,206.3 476.9,207.7 C473.4,209 470,210.5 466.8,212.3 C464.2,213.7 461.7,215.4 459.4,217.3 C457.5,218.9 456.3,219.9 455.9,220.3 C453.7,221.6 452.5,223.6 452.5,225.8 z M629.7,218.5 C627.6,212.3 623.7,206.9 618.5,203 C613.3,199.2 607,197.3 600.5,197.4 C594.1,197.5 587.8,198.9 581.9,201.4 C574.9,204.3 568.2,208 562,212.4 C555,217.4 548.5,223.2 542.6,229.5 C536.2,236.3 530.5,243.6 525.4,251.4 C518.6,261.9 514.2,271.7 512.2,280.8 C510.2,289.9 511,297.9 514.4,304.5 C519.5,312.6 527.1,316.7 537.2,316.7 C547.1,316.6 556.8,314 565.4,309 C574.5,303.9 582.9,297.5 590.1,290 C597.1,282.8 603.1,274.7 607.9,265.8 C612.5,257.3 615.1,249.5 615.8,242.4 C616.2,235.6 614.8,229.9 611.5,225.4 C608.2,220.9 603.4,218.1 597.2,217.1 C595.1,216.9 593,217.4 591.3,218.7 C589.5,219.9 588.4,222 588.3,224.1 C587.8,226.3 588.3,228.5 589.6,230.3 C590.9,232.1 592.9,233.3 595.1,233.7 C596.2,233.9 597.3,234.4 598.3,235 C599.4,235.6 599.7,237.7 599.3,241.1 C598.9,246.4 596.8,252.5 593,259.2 C589,266.2 584.1,272.7 578.4,278.4 C572.5,284.4 565.9,289.5 558.7,293.8 C551.5,298 544.4,300 537.4,300 C534.4,300 532.4,299.5 531.5,298.6 C530.7,297.9 530.1,297.1 529.7,296.2 C528,293.6 527.7,289.3 528.7,283.1 C529.7,276.9 533.3,269.1 539.3,259.7 C543.8,252.5 549,245.9 554.9,239.9 C560,234.6 565.6,229.8 571.6,225.5 C576.5,222 581.8,219 587.3,216.7 C591.5,214.9 596,213.8 600.6,213.7 C607.4,213.7 611.9,217.1 614.1,223.9 C614.8,226 616.3,227.8 618.3,228.9 C620.2,229.9 622.4,229.9 624.4,229.1 C626.6,228.2 628.4,226.6 629.5,224.6 C630.5,222.7 630.6,220.4 629.7,218.5 z M574.9,326.7 L384.3,326.7 C382.2,326.7 380.2,327.6 378.8,329.3 C377.3,331 376.5,333.1 376.6,335.4 C376.5,337.6 377.3,339.7 378.8,341.3 C380.2,342.9 382.2,343.7 384.3,343.7 L574.9,343.7 C579.4,343.8 583.2,340.2 583.2,335.6 C583.2,335.5 583.2,335.4 583.2,335.4 C583.2,333.1 582.4,330.9 580.8,329.3 C579.3,327.6 577.1,326.6 574.9,326.7 z M703.2,343.6 L631,343.6 C628.9,343.6 626.9,342.8 625.5,341.2 C624,339.6 623.2,337.5 623.3,335.3 C623.3,333.1 624.1,330.9 625.5,329.2 C626.8,327.6 628.8,326.6 631,326.6 L703.2,326.6 C705.5,326.6 707.6,327.5 709.1,329.2 C710.7,330.8 711.5,333 711.5,335.3 C711.6,339.8 707.9,343.6 703.4,343.6 C703.4,343.6 703.3,343.6 703.2,343.6 z M569.7,389.1 C568.9,389.1 568.2,388.9 567.5,388.6 C566.7,388.3 566,387.9 565.3,387.5 C563.5,386 562.3,384 561.9,381.7 C561.6,379.7 562.1,377.6 563.3,375.9 L686.2,206.9 C687.5,205.2 689.4,204 691.5,203.5 C693.7,203 696.1,203.6 697.8,205.3 C699.7,206.3 701,208.3 701.2,210.4 C701.5,212.6 701,214.9 699.8,216.8 L576.8,385.6 C575.1,387.8 572.5,389.1 569.7,389.1 z M673,316.7 C670.1,316.7 667.2,316.1 664.5,314.8 C661.9,313.6 659.6,311.7 657.9,309.4 C654,303.2 653.4,296 656,287.6 C656.7,285.4 658.2,283.6 660.2,282.5 C662,281.4 664.2,281.4 666,282.5 C668.2,283.2 670,284.7 671.1,286.7 C672.2,288.7 672.4,291 671.7,293.1 C671.1,294.5 670.8,295.9 670.7,297.4 C670.6,298.3 670.8,299.1 671.3,299.8 C671.5,299.8 671.6,299.8 671.8,300 C672.2,300.2 672.5,300.2 672.9,300.2 C675.7,300.2 678.9,299.2 682.5,297.2 C686.6,294.8 690.5,292 694,288.7 C698.5,284.7 702.6,280.3 706.5,275.7 C710.9,270.5 715,265 718.7,259.2 C724.9,249.6 729.1,241.6 731.4,235.2 C733.6,228.8 734.7,224.5 734.4,222.4 C730.8,222.4 726.9,223.6 722.7,226.1 C719.2,228.1 715.9,230.4 712.9,233 C711.2,234.5 709,235.2 706.8,234.9 C704.6,234.8 702.6,233.7 701.3,232 C699.6,230.4 698.8,228.2 698.9,225.9 C698.9,223.7 700.1,221.6 701.9,220.5 C702.3,220.1 703.5,219.1 705.4,217.5 C707.7,215.6 710.2,214 712.8,212.5 C716,210.7 719.4,209.1 722.9,207.9 C726.5,206.5 730.4,205.8 734.3,205.8 C737.9,205.8 740.7,206.4 742.6,207.6 C744.2,208.5 745.5,209.7 746.4,211.3 C748.1,212.6 749.3,214.4 749.9,216.4 C750.5,218.6 750.9,220.8 750.9,223.1 C750.8,227.7 750,232.2 748.5,236.5 C746.8,241.7 744.7,246.7 742.3,251.5 C739.7,256.6 736.8,261.6 733.6,266.4 C730.4,271.2 727.3,275.6 724.3,279.7 C721.7,283.1 718.5,287 714.7,291.2 C710.8,295.5 706.6,299.6 702.2,303.4 C697.8,307.2 693,310.4 687.9,313 C683.6,315.4 678.4,316.7 673,316.7 z M1061.2,270.7 C1060.2,271.2 1059.2,271.9 1058.3,272.6 C1055.3,274.5 1051.6,276.9 1047.2,279.8 C1042.8,282.7 1038.2,285.5 1033.4,288.3 C1028.6,291.1 1023.8,293.6 1019,295.8 C1015,297.8 1010.7,299.1 1006.3,299.8 C1008.1,296.3 1010.2,293 1012.4,289.7 C1015.2,285.5 1018.6,281 1022.7,275.9 C1026.8,270.9 1031.3,265.6 1036.3,260.1 C1041.3,254.6 1046.7,249 1052.5,243.5 C1054.2,241.9 1055.1,239.7 1055.1,237.4 C1055.2,235.2 1054.2,233.1 1052.5,231.6 C1049.4,228.3 1044.2,228.2 1041,231.3 C1040.9,231.4 1040.8,231.5 1040.7,231.6 C1040.5,231.8 1039.6,232.7 1038,234.3 C1036.4,235.9 1034.4,238.1 1031.9,240.9 C1029.4,243.7 1026.6,246.8 1023.4,250.3 C1020.2,253.8 1017,257.5 1013.8,261.3 C1008.5,267.4 1003.5,273.7 998.9,280.3 C995.9,284.5 993.4,289 991.2,293.7 C989.6,297.4 988.8,300.5 988.8,302.8 C988.7,304.9 989.2,307 990.1,308.9 C991,310.7 992.3,312.2 993.8,313.5 C995.8,315.5 999.2,316.5 1003.9,316.5 C1008.6,316.4 1013.3,315.5 1017.7,313.8 C1023.2,311.8 1028.6,309.5 1033.7,306.8 C1039.3,303.9 1044.9,300.7 1050.7,297 C1056.5,293.4 1062.1,289.7 1067.7,286.1 C1068.6,285.4 1069.6,284.7 1070.6,284.2 C1071.5,283.7 1072.4,283.2 1073.2,282.6 C1074.9,281.3 1076.1,279.4 1076.6,277.3 C1077.1,275.2 1076.7,272.9 1075.5,271.1 C1074.3,269.3 1072.5,268.1 1070.4,267.7 C1068.2,267.1 1065.9,267.6 1064,268.8 C1063,269.7 1062.1,270.2 1061.2,270.7 z M934.8,315.1 C936.7,316.7 939,317.8 941.4,318.3 C943.7,318.7 946,318.9 948.3,318.9 C954.9,318.8 961.3,317 966.9,313.6 C972.8,310.3 978.3,306.4 983.3,301.9 C986.5,299 986.7,294.1 983.9,291 C983.7,290.8 983.5,290.6 983.3,290.4 C981.9,288.6 979.8,287.5 977.5,287.4 C975.3,287.3 973.2,288.2 971.7,289.8 C967.3,294.1 962.2,297.7 956.6,300.4 C951.3,303 947.1,303.3 944.1,301.4 C943.8,300.7 943.7,299.9 943.8,299.2 C944,295.4 945.9,290.3 949.6,284 C953.7,277 958.6,270.5 964,264.5 C970.4,257.4 977.4,250.8 984.9,244.8 C992.5,238.6 1000.8,233.3 1009.6,229.1 C1012.8,227.6 1016.2,226.2 1019.9,224.9 C1023.5,223.6 1027.3,222.8 1031.1,222.5 C1034.9,222.2 1038.7,222.4 1042.5,223.1 C1046.4,223.9 1050.2,225.5 1053.6,227.7 C1055.3,229.1 1057.5,229.7 1059.7,229.3 C1061.8,228.9 1063.8,227.8 1065.2,226.1 C1066.5,224.3 1067,222 1066.6,219.9 C1066.3,217.7 1065.1,215.8 1063.2,214.6 C1055.1,208.9 1045.5,205.8 1035.6,205.8 C1025.3,205.7 1014.2,208.3 1002.2,213.6 C992.8,218.3 984,223.9 975.9,230.6 C967.4,237.4 959.4,244.8 952,252.8 C945.3,260 939.3,268 934.4,276.5 C929.8,284.5 927.3,291.6 926.9,297.8 C926.7,302.7 927.5,306.5 929.5,309.3 C930.8,311.7 932.6,313.6 934.8,315.1 z M1155.4,222.8 C1157.5,223.4 1159.7,222.8 1161.3,221.4 C1165.8,218.1 1170.6,215.2 1175.6,212.6 C1178.9,211 1181.8,210.6 1184.4,211.5 C1184.7,212.4 1184.7,213.4 1184.6,214.4 C1184.3,216.8 1183.6,219.1 1182.7,221.3 C1181,225.5 1179.1,229.5 1176.9,233.5 C1174.2,238.5 1170.5,244.7 1165.8,251.9 C1162.6,256.8 1159.2,261.8 1155.5,266.8 C1151.9,271.8 1148.3,276.6 1144.9,281.2 C1141.5,285.8 1138.3,290 1135.3,293.8 C1132.3,297.6 1129.9,300.8 1127.9,303.4 C1126.3,305 1125.5,307.4 1125.8,309.6 C1126,311.6 1127,313.5 1128.5,314.9 C1130,316.2 1132,316.9 1133.9,316.8 C1135.1,316.8 1136.2,316.4 1137.3,315.8 C1138.5,315.2 1139.6,314.4 1140.7,313.6 C1152.5,298.7 1162.4,285.4 1170.5,273.9 C1177.5,264.2 1184,254.1 1189.9,243.7 C1194.7,235.1 1198,227.8 1199.7,221.8 C1201.4,215.8 1201.7,210.8 1200.7,206.8 C1199.7,204.3 1198.3,202.1 1196.5,200.1 C1194.8,198.2 1192.6,196.8 1190.1,196.3 C1186.7,195.1 1183.1,194.6 1179.5,194.9 C1176.1,195.2 1172.7,196 1169.6,197.3 C1166.4,198.6 1163.3,200.3 1160.5,202.3 C1157.6,204.3 1154.9,206.3 1152.3,208.2 C1150.6,209.6 1149.5,211.5 1148.9,213.6 C1148.4,215.7 1148.6,217.8 1149.7,219.7 C1151.2,221.1 1153.2,222.3 1155.4,222.8 L1155.4,222.8 z M1065.9,305.7 C1066.2,307.9 1067.3,309.9 1068.9,311.3 C1070.4,312.4 1072.2,313 1074,312.9 C1076.5,312.9 1078.9,311.7 1080.4,309.7 C1096,289.9 1108.4,273.6 1117.6,261 C1126.8,248.4 1133.7,238.3 1138.3,230.6 C1142.9,222.9 1145.6,217 1146.3,213 C1147.1,209 1146.7,205.6 1145.2,203.1 C1144,201 1142.4,199.2 1140.5,197.7 C1138.5,196 1135.3,195.1 1131,195.1 C1128.7,195.1 1126.5,195.9 1124.9,197.5 C1123.2,199 1122.3,201.2 1122.3,203.4 C1122.2,205.4 1123,207.3 1124.4,208.7 C1125.8,210.1 1127.5,211 1129.4,211.4 C1128.1,215.2 1125,221 1119.9,228.5 C1114.9,236.1 1109.2,244.2 1102.9,253 C1096.6,261.7 1090.2,270.3 1083.8,278.8 C1077.4,287.2 1072,294.2 1067.8,299.8 C1066.3,301.3 1065.5,303.5 1065.9,305.7 L1065.9,305.7 z M1264.6,271.3 C1263.5,269.6 1261.7,268.3 1259.6,267.9 C1257.3,267.4 1255,267.8 1253,269 L1247.9,272.5 C1245.3,274.2 1242.1,276.3 1238.1,278.9 C1234.1,281.5 1230,284 1225.6,286.6 C1221.2,289.2 1216.8,291.5 1212.4,293.6 C1208.5,295.5 1204.5,297.2 1200.4,298.7 C1203.3,294.4 1206.4,290.2 1209.7,286.2 C1213.5,281.5 1217.2,277 1220.6,272.8 C1233.9,256.8 1244,243.5 1250.9,232.9 C1257.8,222.3 1260,213.3 1257.5,205.9 C1256.7,203.9 1255.6,202.1 1254.3,200.5 C1252.6,198.2 1249.7,196.4 1245.6,195.4 C1238.6,193.6 1231.3,194.5 1224.9,197.8 C1218.7,201 1212.8,204.7 1207.1,208.8 C1205.2,209.9 1203.9,211.9 1203.7,214.1 C1203.3,216.3 1203.8,218.5 1205.1,220.3 C1206.4,222.1 1208.5,223.3 1210.7,223.7 C1212.8,224.1 1214.9,223.5 1216.6,222.3 C1222.2,218.5 1226.9,215.5 1230.7,213.3 C1234.6,211.2 1238.1,210.5 1241.3,211.4 L1241.6,211.4 C1241.4,213.2 1241,215.1 1240.5,216.8 C1239.7,219.6 1237.2,223.9 1233,229.9 C1229.4,235 1225.3,240.3 1221,245.7 C1216.6,251.1 1212.1,256.6 1207.4,262.2 C1196.5,275.4 1188.8,285.5 1184.5,292.4 C1180.2,299.3 1179.1,305.3 1181.4,310.2 C1182.2,311.7 1183.2,313.1 1184.5,314.2 C1186.1,315.8 1188.9,316.6 1193,316.6 C1197.8,316.5 1202.6,315.6 1207.1,313.9 C1212.6,311.9 1218,309.6 1223.2,306.9 C1228.7,304 1234.4,300.8 1240.2,297.1 C1246,293.5 1251.6,289.8 1257.2,286.2 C1257.9,285.4 1258.8,284.8 1259.8,284.3 C1260.7,283.8 1261.6,283.3 1262.4,282.7 C1264.1,281.4 1265.3,279.5 1265.8,277.4 C1266.3,275.4 1265.9,273.1 1264.6,271.3 L1264.6,271.3 z M1218.7,326.7 L880.3,326.7 C878,326.7 875.9,327.6 874.4,329.3 C872.8,330.9 872,333.1 872,335.4 C871.9,339.9 875.6,343.7 880.1,343.7 C880.2,343.7 880.3,343.7 880.3,343.7 L1218.8,343.7 C1221.1,343.7 1223.3,342.9 1224.9,341.3 C1226.6,339.8 1227.5,337.6 1227.5,335.4 C1227.3,330.6 1223.5,326.7 1218.7,326.7 L1218.7,326.7 z M1287.1,442.9 L66.8,442.9 C62.3,442.9 58.7,439.3 58.7,434.9 C58.7,430.5 62.3,426.8 66.7,426.8 C66.7,426.8 66.7,426.8 66.7,426.8 L1287,426.8 C1307.8,426.8 1324.7,410 1324.7,389.2 L1324.7,53.8 C1324.7,33 1307.8,16.2 1287,16.2 L53.9,16.2 C33.1,16.2 16.2,33 16.2,53.8 L16.2,288.6 C16.2,309.4 33.1,326.2 53.9,326.2 C58.4,326.2 62,329.8 62,334.2 C62,338.6 58.4,342.3 54,342.3 C54,342.3 54,342.3 54,342.3 C24.3,342.3 0.2,318.2 0.1,288.5 L0.1,53.8 C0.1,24 24.2,0 53.9,0 L1287.1,0 C1316.8,0 1340.9,24.1 1341,53.8 L1341,389.1 C1340.9,418.8 1316.8,442.9 1287.1,442.9 L1287.1,442.9 z" fill="#FFFFFF" id="シェイプ_3"/>
  </g>
</svg>
